{"title":"MYLENE FARMER---NRJ Music Awards_22.01.2011---Oui mais non---HDT","uid":6124776,"size":292522110,"categoryP":"video","categoryS":"music_videos","magnet":"?xt=urn:btih:b1f7a5c1198ca35b80b96e9b3d0665e273d56b46&amp;dn=MYLENE+FARMER---NRJ+Music+Awards_22.01.2011---Oui+mais+non---HDT&amp;tr=udp%3A%2F%2Ftracker.openbittorrent.com%3A80&amp;tr=udp%3A%2F%2Fopen.demonii.com%3A1337&amp;tr=udp%3A%2F%2Ftracker.coppersurfer.tk%3A6969&amp;tr=udp%3A%2F%2Fexodus.desync.com%3A6969","seeders":0,"leechers":0,"uploader":"vampyroslesbos","files":-1,"time":1295895532,"description":"Format                           : AVI\nFormat/Info                      : Audio Video Interleave\nFile size                        : 279 MiB\nDuration                         : 5mn 10s\nOverall bit rate                 : 7 548 Kbps\nWriting library                  : TMPGEnc 4.0 XPress Version. 4.7.4.299\n\nVideo\nID                               : 0\nFormat                           : MPEG-4 Visual\nFormat profile                   : Advanced Simple@L5\nFormat settings, BVOP            : Yes\nFormat settings, QPel            : No\nFormat settings, GMC             : No warppoints\nFormat settings, Matrix          : Default (H.263)\nMuxing mode                      : Packed bitstream\nCodec ID                         : DX50\nCodec ID/Hint                    : DivX 5\nDuration                         : 5mn 10s\nBit rate                         : 5 999 Kbps\nWidth                            : 1 280 pixels\nHeight                           : 720 pixels\nDisplay aspect ratio             : 16:9\nFrame rate                       : 25.000 fps\nColor space                      : YUV\nChroma subsampling               : 4:2:0\nBit depth                        : 8 bits\nScan type                        : Progressive\nCompression mode                 : Lossy\nBits/(Pixel*Frame)               : 0.260\nStream size                      : 222 MiB (79%)\nWriting library                  : XviD 58\n\nAudio\nID                               : 1\nFormat                           : PCM\nFormat settings, Endianness      : Little\nFormat settings, Sign            : Signed\nCodec ID                         : 1\nCodec ID/Hint                    : Microsoft\nDuration                         : 5mn 10s\nBit rate mode                    : Constant\nBit rate                         : 1 536 Kbps\nChannel(s)                       : 2 channels\nSampling rate                    : 48.0 KHz\nBit depth                        : 16 bits\nStream size                      : 56.8 MiB (20%)\nInterleave, duration             : 40 ms (1.00 video frame)\nInterleave, preload duration     : 479 ms","torrent":{"xt":"urn:btih:b1f7a5c1198ca35b80b96e9b3d0665e273d56b46","amp;dn":"MYLENE+FARMER---NRJ+Music+Awards_22.01.2011---Oui+mais+non---HDT","amp;tr":["udp%3A%2F%2Ftracker.openbittorrent.com%3A80","udp%3A%2F%2Fopen.demonii.com%3A1337","udp%3A%2F%2Ftracker.coppersurfer.tk%3A6969","udp%3A%2F%2Fexodus.desync.com%3A6969"],"infoHash":"b1f7a5c1198ca35b80b96e9b3d0665e273d56b46","infoHashBuffer":{"type":"Buffer","data":[177,247,165,193,25,140,163,91,128,185,110,155,61,6,101,226,115,213,107,70]},"announce":[],"urlList":[]}}